<svg xmlns="http://www.w3.org/2000/svg" width="512" height="512" viewBox="0 0 512 512" role="img" aria-label="PAPI">
<defs>
<radialGradient id="pw" cx="80%" cy="6%" r="86%"><stop offset="0%" stop-color="#9a63e0" stop-opacity="0.32"/><stop offset="40%" stop-color="#9a63e0" stop-opacity="0.11"/><stop offset="70%" stop-color="#9a63e0" stop-opacity="0"/></radialGradient>
</defs>
<rect x="0" y="0" width="512" height="512" fill="#100e17"/>
<rect x="0" y="0" width="512" height="512" fill="url(#pw)"/>
<g transform="translate(7.207 332.076) scale(0.105661 -0.105661)"><path d="M140 0V1440H748Q769 1440 804.5 1438.5Q840 1437 868 1432Q997 1412 1079.5 1347.0Q1162 1282 1201.0 1183.5Q1240 1085 1240 964Q1240 843 1200.5 744.5Q1161 646 1078.5 581.0Q996 516 868 496Q840 492 804.0 490.0Q768 488 748 488H412V0ZM412 742H736Q757 742 782.0 744.0Q807 746 828 752Q883 767 913.0 802.5Q943 838 954.5 881.5Q966 925 966 964Q966 1003 954.5 1046.5Q943 1090 913.0 1125.5Q883 1161 828 1176Q807 1182 782.0 1184.0Q757 1186 736 1186H412Z" fill="#ece9f2"/></g>
<g transform="translate(141.926 332.076) scale(0.105661 -0.105661)"><path d="M40 0 480 1440H886L1326 0H1046L654 1270H706L320 0ZM304 300V554H1064V300Z" fill="#ece9f2"/></g>
<g transform="translate(283.618 332.076) scale(0.105661 -0.105661)"><path d="M140 0V1440H748Q769 1440 804.5 1438.5Q840 1437 868 1432Q997 1412 1079.5 1347.0Q1162 1282 1201.0 1183.5Q1240 1085 1240 964Q1240 843 1200.5 744.5Q1161 646 1078.5 581.0Q996 516 868 496Q840 492 804.0 490.0Q768 488 748 488H412V0ZM412 742H736Q757 742 782.0 744.0Q807 746 828 752Q883 767 913.0 802.5Q943 838 954.5 881.5Q966 925 966 964Q966 1003 954.5 1046.5Q943 1090 913.0 1125.5Q883 1161 828 1176Q807 1182 782.0 1184.0Q757 1186 736 1186H412Z" fill="#ece9f2"/></g>
<g transform="translate(418.336 332.076) scale(0.105661 -0.105661)"><path d="M160 0V1440H432V0Z" fill="#ece9f2"/></g>
<circle cx="481.18" cy="323.25" r="8.82" fill="#dcae4a"/>
</svg>